<?xml version="1.0" encoding="UTF-8"?>
<svg xmlns="http://www.w3.org/2000/svg" xmlns:xlink="http://www.w3.org/1999/xlink" width="1537.39pt" height="705.44pt" viewBox="0 0 1537.39 705.44" version="1.1">
<defs>
<clipPath id="clip1">
  <path d="M 284 0 L 1537.390625 0 L 1537.390625 583 L 284 583 Z M 284 0 "/>
</clipPath>
<clipPath id="clip2">
  <path d="M 727 489 L 1398 489 L 1398 705.441406 L 727 705.441406 Z M 727 489 "/>
</clipPath>
</defs>
<g id="surface1">
<path style=" stroke:none;fill-rule:nonzero;fill:rgb(26.699829%,27.099609%,27.099609%);fill-opacity:1;" d="M 25.070313 324.066406 L 51.921875 324.066406 L 85.488281 426.097656 L 119.355469 324.066406 L 146.191406 324.066406 L 170.480469 470.355469 L 143.828125 470.355469 L 128.304688 377.96875 L 97.542969 470.355469 L 73.253906 470.355469 L 42.765625 377.96875 L 26.871094 470.355469 L 0 470.355469 L 25.070313 324.066406 "/>
<path style=" stroke:none;fill-rule:nonzero;fill:rgb(26.699829%,27.099609%,27.099609%);fill-opacity:1;" d="M 260.378906 384.929688 C 252.03125 384.929688 245.078125 387.859375 239.523438 393.730469 C 233.96875 399.59375 231.191406 407.101563 231.191406 416.257813 C 231.191406 425.664063 233.9375 433.289063 239.425781 439.128906 C 244.914063 444.964844 251.867188 447.878906 260.28125 447.878906 C 268.691406 447.878906 275.691406 444.929688 281.28125 439.027344 C 286.867188 433.128906 289.660156 425.539063 289.660156 416.257813 C 289.660156 406.976563 286.917969 399.433594 281.429688 393.632813 C 275.9375 387.832031 268.921875 384.929688 260.378906 384.929688 Z M 259.933594 359.371094 C 270.039063 359.371094 279.539063 361.921875 288.429688 367.023438 C 297.320313 372.132813 304.261719 379.058594 309.25 387.808594 C 314.234375 396.558594 316.730469 406.011719 316.730469 416.15625 C 316.730469 426.363281 314.222656 435.910156 309.199219 444.792969 C 304.179688 453.679688 297.339844 460.628906 288.675781 465.628906 C 280.015625 470.636719 270.464844 473.136719 260.035156 473.136719 C 244.679688 473.136719 231.570313 467.617188 220.710938 456.578125 C 209.847656 445.539063 204.421875 432.132813 204.421875 416.355469 C 204.421875 399.449219 210.554688 385.359375 222.828125 374.085938 C 233.585938 364.28125 245.960938 359.371094 259.933594 359.371094 "/>
<path style=" stroke:none;fill-rule:nonzero;fill:rgb(26.699829%,27.099609%,27.099609%);fill-opacity:1;" d="M 362.089844 322.273438 L 388.960938 322.273438 L 388.960938 362.15625 L 404.90625 362.15625 L 404.90625 385.523438 L 388.960938 385.523438 L 388.960938 470.355469 L 362.089844 470.355469 L 362.089844 385.523438 L 348.308594 385.523438 L 348.308594 362.15625 L 362.089844 362.15625 L 362.089844 322.273438 "/>
<path style=" stroke:none;fill-rule:nonzero;fill:rgb(26.699829%,27.099609%,27.099609%);fill-opacity:1;" d="M 436.480469 362.15625 L 463.351563 362.15625 L 463.351563 470.355469 L 436.480469 470.355469 Z M 449.917969 317.601563 C 454.628906 317.601563 458.667969 319.328125 462.039063 322.773438 C 465.40625 326.222656 467.09375 330.398438 467.09375 335.300781 C 467.09375 340.144531 465.425781 344.269531 462.089844 347.683594 C 458.75 351.101563 454.757813 352.804688 450.113281 352.804688 C 445.335938 352.804688 441.261719 351.0625 437.894531 347.585938 C 434.523438 344.105469 432.839844 339.878906 432.839844 334.90625 C 432.839844 330.132813 434.507813 326.054688 437.84375 322.671875 C 441.179688 319.292969 445.203125 317.601563 449.917969 317.601563 "/>
<path style=" stroke:none;fill-rule:nonzero;fill:rgb(26.699829%,27.099609%,27.099609%);fill-opacity:1;" d="M 558.664063 384.929688 C 550.316406 384.929688 543.363281 387.859375 537.808594 393.730469 C 532.253906 399.59375 529.476563 407.101563 529.476563 416.257813 C 529.476563 425.664063 532.222656 433.289063 537.710938 439.128906 C 543.199219 444.964844 550.152344 447.878906 558.566406 447.878906 C 566.976563 447.878906 573.980469 444.929688 579.566406 439.027344 C 585.152344 433.128906 587.945313 425.539063 587.945313 416.257813 C 587.945313 406.976563 585.203125 399.433594 579.714844 393.632813 C 574.226563 387.832031 567.207031 384.929688 558.664063 384.929688 Z M 558.21875 359.371094 C 568.324219 359.371094 577.824219 361.921875 586.714844 367.023438 C 595.605469 372.132813 602.546875 379.058594 607.535156 387.808594 C 612.519531 396.558594 615.015625 406.011719 615.015625 416.15625 C 615.015625 426.363281 612.507813 435.910156 607.484375 444.792969 C 602.464844 453.679688 595.625 460.628906 586.960938 465.628906 C 578.300781 470.636719 568.753906 473.136719 558.320313 473.136719 C 542.964844 473.136719 529.855469 467.617188 518.996094 456.578125 C 508.132813 445.539063 502.707031 432.132813 502.707031 416.355469 C 502.707031 399.449219 508.839844 385.359375 521.113281 374.085938 C 531.871094 364.28125 544.246094 359.371094 558.21875 359.371094 "/>
<path style=" stroke:none;fill-rule:nonzero;fill:rgb(26.699829%,27.099609%,27.099609%);fill-opacity:1;" d="M 657.125 362.15625 L 683.996094 362.15625 L 683.996094 373.242188 C 690.089844 368.050781 695.609375 364.441406 700.558594 362.410156 C 705.503906 360.382813 710.566406 359.371094 715.742188 359.371094 C 726.355469 359.371094 735.367188 363.113281 742.773438 370.605469 C 748.996094 376.972656 752.109375 386.386719 752.109375 398.851563 L 752.109375 470.355469 L 725.535156 470.355469 L 725.535156 422.96875 C 725.535156 410.058594 724.960938 401.484375 723.8125 397.246094 C 722.667969 393.011719 720.671875 389.777344 717.824219 387.5625 C 714.976563 385.339844 711.457031 384.230469 707.265625 384.230469 C 701.835938 384.230469 697.171875 386.070313 693.277344 389.746094 C 689.378906 393.421875 686.679688 398.503906 685.171875 404.992188 C 684.386719 408.367188 683.996094 415.691406 683.996094 426.945313 L 683.996094 470.355469 L 657.125 470.355469 L 657.125 362.15625 "/>
<path style=" stroke:none;fill-rule:nonzero;fill:rgb(2.69928%,35.699463%,63.899231%);fill-opacity:1;" d="M 877.867188 324.066406 L 956.90625 324.066406 L 956.90625 351.3125 L 905.230469 351.3125 L 905.230469 377.769531 L 956.90625 377.769531 L 956.90625 404.519531 L 905.230469 404.519531 L 905.230469 443.003906 L 956.90625 443.003906 L 956.90625 470.355469 L 877.867188 470.355469 L 877.867188 324.066406 "/>
<path style=" stroke:none;fill-rule:nonzero;fill:rgb(2.69928%,35.699463%,63.899231%);fill-opacity:1;" d="M 987.921875 362.15625 L 1015.378906 362.15625 L 1043.199219 430.042969 L 1073.890625 362.15625 L 1101.441406 362.15625 L 1034.359375 509.9375 L 1006.609375 509.9375 L 1028.628906 462.277344 L 987.921875 362.15625 "/>
<path style=" stroke:none;fill-rule:nonzero;fill:rgb(2.69928%,35.699463%,63.899231%);fill-opacity:1;" d="M 1217.320313 402.730469 C 1215.539063 396.695313 1212.039063 391.789063 1206.808594 388.007813 C 1201.589844 384.230469 1195.53125 382.339844 1188.621094 382.339844 C 1181.128906 382.339844 1174.558594 384.460938 1168.898438 388.707031 C 1165.351563 391.363281 1162.070313 396.03125 1159.039063 402.730469 Z M 1244.191406 424.109375 L 1157.859375 424.109375 C 1159.109375 431.800781 1162.441406 437.917969 1167.851563 442.460938 C 1173.269531 447 1180.171875 449.273438 1188.570313 449.273438 C 1198.609375 449.273438 1207.238281 445.722656 1214.460938 438.632813 L 1237.101563 449.371094 C 1231.449219 457.457031 1224.699219 463.441406 1216.820313 467.320313 C 1208.949219 471.195313 1199.601563 473.136719 1188.769531 473.136719 C 1171.96875 473.136719 1158.289063 467.785156 1147.71875 457.074219 C 1137.160156 446.371094 1131.878906 432.957031 1131.878906 416.851563 C 1131.878906 400.339844 1137.140625 386.636719 1147.671875 375.726563 C 1158.210938 364.824219 1171.410156 359.371094 1187.289063 359.371094 C 1204.160156 359.371094 1217.871094 364.824219 1228.441406 375.726563 C 1239 386.636719 1244.28125 401.039063 1244.28125 418.9375 L 1244.191406 424.109375 "/>
<g clip-path="url(#clip1)" clip-rule="nonzero">
<path style=" stroke:none;fill-rule:nonzero;fill:rgb(0.799561%,0.799561%,0.799561%);fill-opacity:1;" d="M 284.382813 149.671875 C 284.382813 149.671875 361.929688 267.664063 486.605469 281.476563 C 746.292969 315.074219 929.710938 159.765625 1149.300781 213.351563 C 1380.671875 255.75 1537.390625 582.886719 1537.390625 582.886719 C 1537.390625 582.886719 1441.789063 211.988281 1134.761719 145.5625 C 1030.128906 122.933594 885.007813 155.128906 727.03125 191.597656 C 956.726563 -44.082031 1206.941406 18.492188 1206.941406 18.492188 C 1206.941406 18.492188 1050.128906 -31.164063 878.226563 32.253906 C 750.210938 91.042969 736.6875 116.816406 588.644531 204.851563 C 468.269531 278.382813 284.382813 149.671875 284.382813 149.671875 "/>
</g>
<g clip-path="url(#clip2)" clip-rule="nonzero">
<path style=" stroke:none;fill-rule:nonzero;fill:rgb(0.799561%,0.799561%,0.799561%);fill-opacity:1;" d="M 1397.710938 489.335938 C 1326.011719 494.515625 1257.878906 651.066406 1091.179688 654.871094 C 939.300781 654.949219 830.746094 529.152344 727.03125 521.808594 C 794.757813 544.507813 871.105469 612.367188 900.035156 637.09375 C 968.855469 691.425781 1005.261719 705.480469 1089.878906 705.441406 C 1251.359375 702.921875 1314.25 524.320313 1397.710938 489.335938 "/>
</g>
<path style=" stroke:none;fill-rule:nonzero;fill:rgb(0.799561%,0.799561%,0.799561%);fill-opacity:1;" d="M 362.691406 559.675781 L 366.230469 557.621094 C 368.722656 562.054688 371.597656 564.273438 374.859375 564.273438 C 376.257813 564.273438 377.566406 563.957031 378.796875 563.328125 C 380.019531 562.699219 380.953125 561.855469 381.597656 560.796875 C 382.238281 559.738281 382.558594 558.617188 382.558594 557.429688 C 382.558594 556.082031 382.085938 554.757813 381.144531 553.464844 C 379.84375 551.675781 377.464844 549.523438 374.011719 547.003906 C 370.539063 544.46875 368.382813 542.632813 367.53125 541.503906 C 366.0625 539.605469 365.324219 537.550781 365.324219 535.34375 C 365.324219 533.59375 365.757813 531.996094 366.625 530.554688 C 367.492188 529.117188 368.714844 527.980469 370.289063 527.148438 C 371.867188 526.320313 373.578125 525.902344 375.429688 525.902344 C 377.390625 525.902344 379.222656 526.371094 380.933594 527.316406 C 382.636719 528.253906 384.445313 529.980469 386.351563 532.5 L 382.953125 534.992188 C 381.386719 532.980469 380.054688 531.664063 378.949219 531.023438 C 377.847656 530.382813 376.644531 530.0625 375.34375 530.0625 C 373.664063 530.0625 372.289063 530.554688 371.226563 531.542969 C 370.160156 532.523438 369.628906 533.742188 369.628906 535.183594 C 369.628906 536.054688 369.8125 536.90625 370.191406 537.726563 C 370.570313 538.550781 371.257813 539.441406 372.257813 540.410156 C 372.804688 540.917969 374.597656 542.261719 377.636719 544.429688 C 381.238281 547.003906 383.707031 549.292969 385.050781 551.300781 C 386.386719 553.308594 387.058594 555.324219 387.058594 557.347656 C 387.058594 560.269531 385.910156 562.804688 383.621094 564.953125 C 381.328125 567.109375 378.539063 568.183594 375.257813 568.183594 C 372.730469 568.183594 370.4375 567.535156 368.382813 566.226563 C 366.324219 564.921875 364.429688 562.738281 362.691406 559.675781 "/>
<path style=" stroke:none;fill-rule:nonzero;fill:rgb(0.799561%,0.799561%,0.799561%);fill-opacity:1;" d="M 403.316406 530.859375 L 403.316406 526.914063 L 426.128906 526.914063 L 426.128906 530.859375 L 416.84375 530.859375 L 416.84375 567.171875 L 412.601563 567.171875 L 412.601563 530.859375 L 403.316406 530.859375 "/>
<path style=" stroke:none;fill-rule:nonzero;fill:rgb(0.799561%,0.799561%,0.799561%);fill-opacity:1;" d="M 443.855469 526.914063 L 448.019531 526.914063 L 448.019531 551.21875 C 448.019531 554.101563 448.074219 555.898438 448.1875 556.609375 C 448.394531 558.195313 448.875 559.523438 449.628906 560.589844 C 450.382813 561.65625 451.542969 562.554688 453.109375 563.273438 C 454.675781 563.992188 456.253906 564.351563 457.835938 564.351563 C 459.210938 564.351563 460.535156 564.070313 461.796875 563.503906 C 463.0625 562.9375 464.117188 562.15625 464.96875 561.152344 C 465.816406 560.148438 466.4375 558.933594 466.835938 557.511719 C 467.117188 556.492188 467.261719 554.390625 467.261719 551.21875 L 467.261719 526.914063 L 471.417969 526.914063 L 471.417969 551.21875 C 471.417969 554.8125 471.054688 557.71875 470.328125 559.933594 C 469.601563 562.148438 468.152344 564.082031 465.972656 565.722656 C 463.792969 567.363281 461.15625 568.183594 458.0625 568.183594 C 454.703125 568.183594 451.828125 567.410156 449.433594 565.859375 C 447.035156 564.308594 445.429688 562.253906 444.621094 559.703125 C 444.113281 558.132813 443.855469 555.304688 443.855469 551.21875 L 443.855469 526.914063 "/>
<path style=" stroke:none;fill-rule:nonzero;fill:rgb(0.799561%,0.799561%,0.799561%);fill-opacity:1;" d="M 497.246094 563.371094 L 502.054688 563.371094 C 507.808594 563.371094 511.800781 563.023438 514.027344 562.328125 C 517.15625 561.347656 519.617188 559.574219 521.410156 557.007813 C 523.203125 554.449219 524.101563 551.320313 524.101563 547.617188 C 524.101563 543.734375 523.128906 540.421875 521.1875 537.664063 C 519.242188 534.914063 516.53125 533.027344 513.0625 532.003906 C 510.460938 531.242188 506.167969 530.859375 500.1875 530.859375 L 497.246094 530.859375 Z M 493.253906 567.171875 L 493.253906 526.914063 L 501.886719 526.914063 C 508.113281 526.914063 512.628906 527.398438 515.441406 528.367188 C 519.476563 529.734375 522.632813 532.105469 524.90625 535.484375 C 527.179688 538.859375 528.316406 542.882813 528.316406 547.550781 C 528.316406 551.585938 527.414063 555.132813 525.613281 558.195313 C 523.8125 561.261719 521.472656 563.523438 518.597656 564.984375 C 515.71875 566.445313 511.6875 567.171875 506.496094 567.171875 L 493.253906 567.171875 "/>
<path style=" stroke:none;fill-rule:nonzero;fill:rgb(0.799561%,0.799561%,0.799561%);fill-opacity:1;" d="M 547.375 526.914063 L 551.535156 526.914063 L 551.535156 567.171875 L 547.375 567.171875 L 547.375 526.914063 "/>
<path style=" stroke:none;fill-rule:nonzero;fill:rgb(0.799561%,0.799561%,0.799561%);fill-opacity:1;" d="M 592.671875 529.820313 C 589.589844 529.820313 586.671875 530.59375 583.914063 532.148438 C 581.152344 533.699219 579 535.789063 577.449219 538.417969 C 575.902344 541.046875 575.125 543.980469 575.125 547.207031 C 575.125 551.996094 576.839844 556.03125 580.269531 559.328125 C 583.699219 562.621094 587.832031 564.273438 592.671875 564.273438 C 595.902344 564.273438 598.890625 563.515625 601.640625 561.996094 C 604.390625 560.484375 606.535156 558.410156 608.074219 555.78125 C 609.613281 553.152344 610.386719 550.230469 610.386719 547.019531 C 610.386719 543.824219 609.613281 540.933594 608.074219 538.347656 C 606.535156 535.765625 604.367188 533.699219 601.570313 532.148438 C 598.773438 530.59375 595.808594 529.820313 592.671875 529.820313 Z M 592.488281 525.902344 C 598.792969 525.902344 604.066406 527.9375 608.3125 532.003906 C 612.5625 536.078125 614.6875 541.082031 614.6875 547.03125 C 614.6875 552.925781 612.566406 557.921875 608.328125 562.03125 C 604.089844 566.132813 598.921875 568.183594 592.828125 568.183594 C 586.652344 568.183594 581.445313 566.144531 577.195313 562.054688 C 572.949219 557.96875 570.824219 553.023438 570.824219 547.222656 C 570.824219 543.355469 571.792969 539.769531 573.726563 536.46875 C 575.660156 533.164063 578.300781 530.578125 581.640625 528.710938 C 584.984375 526.84375 588.597656 525.902344 592.488281 525.902344 "/>
</g>
</svg>
